<svg xmlns="http://www.w3.org/2000/svg" fill="none" viewBox="97 99 169 129.89">
<rect width="362" height="328" fill="none"/>
<path d="M217.319 192.377C214.517 186.043 212.508 182 212.508 182H179.44H178.88H145.811C145.811 182 143.804 186.043 141 192.377C145.357 199.927 165.074 219.824 178.91 220.6V220.642L179.16 220.62L179.409 220.642V220.6C193.247 219.824 212.962 199.927 217.319 192.377Z" fill="#FABBC2"/>
<path d="M255.645 205.911C256.888 219.173 252.576 228.887 243.751 228.887C234.926 228.887 230 217.239 230 203.918C230 190.597 234.894 184 243.719 184C248.132 184 257.476 188.516 259.347 193.167C261.217 197.817 254.222 190.723 255.645 205.911Z" fill="#F57646"/>
<path d="M234.69 208.399C234.69 208.401 234.688 208.522 234.688 208.741C234.689 209.834 234.73 213.391 235.239 217.309C235.758 221.231 236.697 225.499 238.68 228.128C238.901 228.42 239.318 228.476 239.61 228.254C239.902 228.033 239.959 227.616 239.736 227.324C238.031 225.109 237.042 220.96 236.556 217.137C236.059 213.312 236.015 209.798 236.017 208.741C236.017 208.528 236.018 208.418 236.018 208.418C236.023 208.051 235.731 207.75 235.363 207.744C234.997 207.738 234.695 208.032 234.69 208.399Z" fill="white"/>
<path d="M244.173 208.474C244.191 208.532 245.156 218.509 251.268 225.49C251.51 225.766 251.93 225.793 252.204 225.551C252.48 225.309 252.508 224.889 252.266 224.614C249.388 221.342 247.68 217.264 246.709 214.006C246.222 212.377 245.917 210.953 245.735 209.94C245.644 209.434 245.584 209.031 245.545 208.756C245.528 208.619 245.515 208.513 245.506 208.443L245.494 208.342C245.458 207.977 245.133 207.71 244.768 207.748C244.402 207.785 244.137 208.11 244.173 208.474Z" fill="white"/>
<path d="M121.022 205.909C119.78 219.173 124.09 228.886 132.915 228.886C141.74 228.886 146.666 217.239 146.666 203.919C146.666 190.597 141.772 184 132.946 184C128.535 184 119.19 188.516 117.32 193.167C115.449 197.818 122.444 190.723 121.022 205.909Z" fill="#F57646"/>
<path d="M140.648 208.418C140.648 208.418 140.65 208.528 140.65 208.74C140.651 209.794 140.609 213.309 140.11 217.135C139.624 220.958 138.635 225.108 136.929 227.323C136.708 227.616 136.764 228.032 137.056 228.254C137.347 228.476 137.764 228.419 137.987 228.128C139.969 225.499 140.908 221.229 141.428 217.306C141.936 213.388 141.977 209.83 141.979 208.74C141.979 208.522 141.976 208.403 141.976 208.399C141.971 208.032 141.67 207.74 141.303 207.745C140.937 207.75 140.643 208.052 140.648 208.418Z" fill="white"/>
<path d="M131.173 208.342L131.161 208.443C131.047 209.495 129.806 218.484 124.401 224.613C124.16 224.889 124.187 225.308 124.462 225.55C124.738 225.792 125.157 225.766 125.399 225.49C131.511 218.507 132.477 208.532 132.494 208.474C132.53 208.11 132.264 207.784 131.899 207.747C131.534 207.711 131.208 207.976 131.173 208.342Z" fill="white"/>
<path d="M169.497 125.807C169.497 125.807 166.6 125.903 162.38 126.958C154.86 128.875 143.12 133.901 136.023 147.081C134.871 149.249 133.835 151.626 132.972 154.235C132.972 154.235 135.332 120.166 143.599 105.433C151.887 90.6828 161.478 102.902 169.497 125.807Z" fill="#F57646"/>
<path d="M162.381 126.958C154.86 128.875 143.12 133.901 136.023 147.08C137.289 128.262 142.679 105.894 149.355 102.787C155.167 100.083 160.5 119.648 162.381 126.958Z" fill="#F68087"/>
<path d="M189.25 125.807C189.25 125.807 192.148 125.903 196.368 126.958C203.888 128.875 215.627 133.901 222.725 147.081C223.877 149.249 224.913 151.626 225.775 154.235C225.775 154.235 223.416 120.166 215.147 105.433C206.861 90.6828 197.269 102.902 189.25 125.807Z" fill="#F57646"/>
<path d="M196.368 126.958C203.888 128.875 215.627 133.901 222.725 147.08C221.459 128.262 216.069 105.894 209.393 102.787C203.58 100.083 198.248 119.648 196.368 126.958Z" fill="#F68087"/>
<path d="M225.514 162.312V162.333C224.708 168.797 222.31 173.804 219.529 177.678L219.51 177.717C218.436 179.251 217.265 180.612 216.134 181.822C214.734 183.298 213.352 184.547 212.144 185.581C201.631 194.598 166.008 196.957 149.702 188.785C149.702 188.785 135.316 182.359 133.167 161.757V161.68C131.21 142.649 145.041 126.191 170.363 123.006C172.415 122.737 174.526 122.565 176.731 122.488C176.923 122.488 177.116 122.469 177.308 122.469H177.403C181.528 122.354 185.402 122.527 189.066 123.006C211.127 125.808 224.402 138.622 225.668 153.699C225.936 156.827 225.86 159.684 225.514 162.312Z" fill="#FDE2E1"/>
<path d="M173.218 152.126C170.13 169.678 145.901 173.63 133.164 161.68C131.207 142.649 145.039 126.191 170.36 123.006C172.431 128.148 175.579 138.737 173.218 152.126Z" fill="#F57646"/>
<path d="M225.511 162.312V162.333C212.601 173.477 189.217 169.353 186.186 152.127C183.827 138.737 186.973 128.148 189.063 123.006C211.124 125.808 224.399 138.622 225.665 153.699C225.933 156.827 225.857 159.684 225.511 162.312Z" fill="#F57646"/>
<path d="M158.351 139.84C174.058 139.951 174.178 164.418 158.351 164.418C142.526 164.418 141.566 139.719 158.351 139.84Z" fill="#F9DD46"/>
<path d="M201.482 139.84C217.189 139.951 217.309 164.418 201.482 164.418C185.656 164.418 184.697 139.719 201.482 139.84Z" fill="#F9DD46"/>
<path d="M153.75 146.209C163.304 146.276 163.377 161.161 153.75 161.161C144.123 161.161 143.539 146.136 153.75 146.209Z" fill="#0F002C"/>
<path d="M196.717 146.209C206.271 146.276 206.344 161.161 196.717 161.161C187.089 161.161 186.506 146.136 196.717 146.209Z" fill="#0F002C"/>
<path d="M175.376 148.232C175.376 144.514 184.128 144.035 184.128 148.232C184.128 152.428 175.376 152.668 175.376 148.232Z" fill="#67311A"/>
<path d="M182.759 161.762C181.334 161.762 180.431 161.118 179.885 160.322C179.785 160.499 179.664 160.67 179.52 160.829C178.958 161.448 178.169 161.762 177.176 161.762C174.441 161.762 173.626 159.388 173.576 158.13C173.563 157.8 173.821 157.522 174.151 157.508C174.519 157.478 174.764 157.75 174.779 158.08C174.792 158.335 174.96 160.558 177.176 160.558C177.822 160.558 178.296 160.383 178.623 160.024C179.252 159.336 179.154 158.176 179.154 158.164C179.139 157.996 179.195 157.827 179.308 157.702C179.638 157.337 180.34 157.591 180.363 158.08C180.376 158.335 180.544 160.558 182.759 160.558C183.405 160.558 183.879 160.383 184.206 160.024C184.835 159.336 184.738 158.176 184.737 158.164C184.707 157.834 184.949 157.541 185.28 157.509C185.611 157.484 185.904 157.719 185.936 158.048C185.943 158.118 186.09 159.741 185.103 160.829C184.542 161.448 183.753 161.762 182.759 161.762Z" fill="#0F002C"/>
<path d="M179.762 158.71C179.429 158.71 179.16 158.44 179.16 158.106V151.467C179.16 151.135 179.429 150.864 179.762 150.864C180.094 150.864 180.364 151.135 180.364 151.467V158.106C180.364 158.44 180.094 158.71 179.762 158.71Z" fill="#0F002C"/>
<path d="M179.656 167.332C177.648 167.332 176.496 166.029 176.479 166.008C176.262 165.756 176.292 165.375 176.543 165.159C176.794 164.942 177.172 164.969 177.391 165.221C177.482 165.323 179.291 167.273 182.473 165.118C182.751 164.931 183.124 165.005 183.309 165.278C183.497 165.552 183.425 165.928 183.149 166.115C181.805 167.026 180.628 167.332 179.656 167.332Z" fill="#0F002C"/>
<path d="M156.193 168.09C156.165 168.081 133.747 160.167 108.316 160.166C104.73 160.166 101.084 160.322 97.4318 160.682C97.1691 160.709 96.9756 160.944 97.0025 161.207C97.0281 161.47 97.2626 161.663 97.5266 161.637C101.143 161.281 104.758 161.124 108.316 161.124C120.933 161.124 132.83 163.092 141.569 165.061C145.938 166.046 149.519 167.03 152.003 167.767C153.246 168.136 154.215 168.443 154.873 168.657C155.531 168.873 155.872 168.993 155.874 168.993C156.124 169.082 156.398 168.951 156.485 168.701C156.573 168.451 156.443 168.177 156.193 168.09Z" fill="white"/>
<path d="M148.136 171.577C148.131 171.577 146.521 171.526 143.781 171.526C134.82 171.527 113.801 172.065 97.3488 176.731C97.0938 176.804 96.9464 177.07 97.0182 177.325C97.0912 177.578 97.3552 177.727 97.6102 177.654C113.884 173.033 134.864 172.483 143.781 172.484C145.145 172.484 146.227 172.497 146.967 172.51C147.708 172.523 148.104 172.536 148.105 172.536C148.369 172.543 148.591 172.336 148.6 172.07C148.608 171.806 148.4 171.585 148.136 171.577Z" fill="white"/>
<path d="M207.125 168.993C207.127 168.993 207.469 168.873 208.126 168.657C212.729 167.154 232.602 161.123 254.683 161.124C258.241 161.124 261.856 161.281 265.472 161.637C265.736 161.663 265.971 161.47 265.998 161.207C266.023 160.944 265.83 160.709 265.567 160.682C261.915 160.322 258.269 160.166 254.683 160.166C229.252 160.167 206.834 168.081 206.806 168.09C206.556 168.177 206.426 168.451 206.514 168.701C206.602 168.951 206.875 169.082 207.125 168.993Z" fill="white"/>
<path d="M214.894 172.536C214.895 172.536 215.291 172.523 216.032 172.51C216.773 172.497 217.854 172.484 219.218 172.484C228.135 172.483 249.115 173.033 265.389 177.654C265.644 177.727 265.909 177.578 265.981 177.325C266.054 177.07 265.905 176.804 265.65 176.731C249.198 172.065 228.179 171.527 219.218 171.526C216.479 171.526 214.868 171.577 214.864 171.577C214.599 171.585 214.391 171.806 214.399 172.07C214.408 172.336 214.63 172.543 214.894 172.536Z" fill="white"/>
</svg>