<svg width="169" height="130" viewBox="0 0 169 130" fill="none" xmlns="http://www.w3.org/2000/svg">
<path d="M120.319 93.3766C117.517 87.0432 115.508 83 115.508 83H82.4396H81.8796H48.8109C48.8109 83 46.804 87.0432 44 93.3766C48.3572 100.927 68.0736 120.824 81.9104 121.6V121.642L82.1602 121.62L82.4089 121.642V121.6C96.2469 120.824 115.962 100.927 120.319 93.3766Z" fill="#FABBC2"/>
<path d="M158.645 106.911C159.888 120.173 155.576 129.887 146.751 129.887C137.926 129.887 133 118.239 133 104.918C133 91.5973 137.894 85 146.719 85C151.132 85 160.476 89.5161 162.347 94.1668C164.217 98.8172 157.222 91.7229 158.645 106.911Z" fill="#F57646"/>
<path d="M137.69 109.399C137.69 109.401 137.688 109.522 137.688 109.741C137.689 110.834 137.73 114.391 138.239 118.309C138.758 122.231 139.697 126.499 141.68 129.128C141.901 129.42 142.318 129.476 142.61 129.254C142.902 129.033 142.959 128.616 142.736 128.324C141.031 126.109 140.042 121.96 139.556 118.137C139.059 114.312 139.015 110.798 139.017 109.741C139.017 109.528 139.018 109.418 139.018 109.418C139.023 109.051 138.731 108.75 138.363 108.744C137.997 108.738 137.695 109.032 137.69 109.399Z" fill="white"/>
<path d="M147.173 109.474C147.191 109.532 148.156 119.509 154.268 126.49C154.51 126.766 154.93 126.793 155.204 126.551C155.48 126.308 155.508 125.889 155.266 125.614C152.388 122.342 150.68 118.264 149.709 115.005C149.222 113.376 148.917 111.953 148.735 110.94C148.644 110.434 148.584 110.031 148.545 109.756C148.528 109.619 148.515 109.513 148.506 109.443L148.494 109.342C148.458 108.977 148.133 108.71 147.768 108.747C147.402 108.784 147.137 109.11 147.173 109.474Z" fill="white"/>
<path d="M24.0215 106.909C22.7797 120.173 27.0895 129.886 35.9155 129.886C44.7401 129.886 49.6663 118.239 49.6663 104.919C49.6663 91.5973 44.7721 85 35.9462 85C31.5352 85 22.1902 89.5161 20.3204 94.1668C18.4494 98.8175 25.444 91.7229 24.0215 106.909Z" fill="#F57646"/>
<path d="M43.6483 109.418C43.6483 109.418 43.6496 109.528 43.6496 109.74C43.6509 110.794 43.6086 114.308 43.1101 118.135C42.6244 121.958 41.635 126.108 39.9293 128.323C39.7076 128.616 39.764 129.032 40.0562 129.254C40.3471 129.476 40.7636 129.419 40.9866 129.128C42.9691 126.499 43.9085 122.228 44.4275 118.306C44.9363 114.388 44.9773 110.83 44.9786 109.74C44.9786 109.522 44.976 109.403 44.976 109.399C44.9709 109.032 44.6697 108.74 44.3032 108.745C43.9367 108.75 43.6432 109.052 43.6483 109.418Z" fill="white"/>
<path d="M34.1725 109.342L34.161 109.443C34.0469 110.495 32.8064 119.484 27.4009 125.613C27.16 125.889 27.1869 126.308 27.4624 126.55C27.7379 126.792 28.157 126.766 28.3992 126.49C34.5109 119.507 35.4771 109.532 35.4938 109.474C35.5297 109.11 35.2644 108.784 34.8992 108.747C34.5339 108.711 34.2084 108.976 34.1725 109.342Z" fill="white"/>
<path d="M72.4967 26.8071C72.4967 26.8071 69.6004 26.9032 65.3803 27.9579C57.8603 29.8751 46.1202 34.9012 39.023 48.0805C37.8709 50.2489 36.8354 52.6261 35.9717 55.2354C35.9717 55.2354 38.3323 21.1658 46.5995 6.43324C54.8871 -8.31722 64.4781 3.90221 72.4967 26.8071Z" fill="#F57646"/>
<path d="M65.3805 27.9578C57.8605 29.875 46.1203 34.9011 39.0232 48.0804C40.2893 29.2624 45.6795 6.89449 52.355 3.78677C58.1668 1.08273 63.5005 20.6479 65.3805 27.9578Z" fill="#F68087"/>
<path d="M92.2502 26.8071C92.2502 26.8071 95.1478 26.9032 99.3679 27.9579C106.888 29.8751 118.627 34.9012 125.725 48.0805C126.877 50.2489 127.913 52.6261 128.775 55.2354C128.775 55.2354 126.416 21.1658 118.147 6.43324C109.861 -8.31722 100.269 3.90221 92.2502 26.8071Z" fill="#F57646"/>
<path d="M99.3679 27.9578C106.888 29.875 118.627 34.9011 125.725 48.0804C124.459 29.2624 119.069 6.89449 112.393 3.78677C106.58 1.08273 101.248 20.6479 99.3679 27.9578Z" fill="#F68087"/>
<path d="M128.514 63.312V63.3325C127.708 69.7966 125.31 74.8036 122.529 78.6776L122.51 78.7174C121.436 80.2513 120.265 81.6123 119.134 82.8221C117.734 84.2984 116.352 85.5467 115.144 86.5809C104.631 95.5977 69.0085 97.957 52.7022 89.7847C52.7022 89.7847 38.3157 83.3591 36.1666 62.7571V62.6802C34.2097 43.6495 48.0413 27.1907 73.3631 24.0061C75.4149 23.737 77.5256 23.5652 79.7311 23.4883C79.9233 23.4883 80.1155 23.4691 80.3078 23.4691H80.4026C84.5279 23.3538 88.4019 23.5268 92.0658 24.0061C114.127 26.8075 127.402 39.6216 128.668 54.6988C128.936 57.8271 128.86 60.6836 128.514 63.312Z" fill="#FDE2E1"/>
<path d="M76.2183 53.1263C73.1298 70.6782 48.9011 74.6305 36.1639 62.6802C34.207 43.6494 48.0386 27.1906 73.3604 24.006C75.4314 29.1475 78.5789 39.7369 76.2183 53.1263Z" fill="#F57646"/>
<path d="M128.511 63.3121V63.3327C115.601 74.4769 92.217 70.3529 89.1862 53.1265C86.8269 39.737 89.9731 29.1477 92.0633 24.0062C114.124 26.8076 127.399 39.6217 128.665 54.699C128.933 57.8272 128.857 60.6837 128.511 63.3121Z" fill="#F57646"/>
<path d="M61.3512 40.84C77.0577 40.9515 77.1782 65.4185 61.3512 65.4185C45.5256 65.4185 44.5657 40.7195 61.3512 40.84Z" fill="#F9DD46"/>
<path d="M104.482 40.84C120.189 40.9515 120.309 65.4185 104.482 65.4185C88.6564 65.4185 87.6966 40.7195 104.482 40.84Z" fill="#F9DD46"/>
<path d="M65.4409 47.0002C74.9948 47.0669 75.0678 61.9519 65.4409 61.9519C55.814 61.9519 55.2297 46.9272 65.4409 47.0002Z" fill="#0F002C"/>
<path d="M109.441 47.0002C118.995 47.0669 119.068 61.9519 109.441 61.9519C99.8132 61.9519 99.2301 46.9272 109.441 47.0002Z" fill="#0F002C"/>
<path d="M78.3765 49.2321C78.3765 45.5144 87.128 45.0351 87.128 49.2321C87.128 53.4279 78.3765 53.6675 78.3765 49.2321Z" fill="#67311A"/>
<path d="M85.7594 62.7622C84.3343 62.7622 83.4308 62.1176 82.8849 61.3218C82.7849 61.4986 82.6645 61.6704 82.5196 61.8293C81.9583 62.4482 81.1689 62.7622 80.1757 62.7622C77.4409 62.7622 76.6259 60.3875 76.5759 59.1303C76.5631 58.7997 76.8207 58.5216 77.1513 58.5075C77.5191 58.478 77.7639 58.7497 77.7792 59.0804C77.7921 59.3354 77.9599 61.5576 80.1757 61.5576C80.8216 61.5576 81.2958 61.3833 81.6226 61.0245C82.2518 60.3363 82.1544 59.1765 82.1544 59.1637C82.139 58.9958 82.1954 58.8266 82.3082 58.7023C82.6376 58.3371 83.3398 58.5908 83.3629 59.0804C83.3757 59.3354 83.5436 61.5576 85.7594 61.5576C86.4053 61.5576 86.8794 61.3833 87.2062 61.0245C87.8355 60.3363 87.738 59.1765 87.7368 59.1637C87.7073 58.8343 87.9495 58.5408 88.2801 58.5088C88.6108 58.4845 88.9043 58.719 88.9363 59.0483C88.9427 59.1175 89.0901 60.7412 88.1033 61.8293C87.542 62.4482 86.7526 62.7622 85.7594 62.7622Z" fill="#0F002C"/>
<path d="M82.762 59.71C82.4288 59.71 82.1597 59.4396 82.1597 59.1064V52.4667C82.1597 52.1348 82.4288 51.8644 82.762 51.8644C83.0939 51.8644 83.3643 52.1348 83.3643 52.4667V59.1064C83.3643 59.4396 83.0939 59.71 82.762 59.71Z" fill="#0F002C"/>
<path d="M82.6558 68.3322C80.6476 68.3322 79.4955 67.0288 79.4789 67.0083C79.2623 66.7559 79.2918 66.3752 79.5429 66.1587C79.7941 65.9421 80.1722 65.969 80.3913 66.2215C80.4823 66.3227 82.2906 68.2732 85.4726 66.1177C85.7507 65.9306 86.1236 66.0049 86.3094 66.2778C86.4966 66.5521 86.4248 66.9276 86.1493 67.1147C84.8049 68.0259 83.6285 68.3322 82.6558 68.3322Z" fill="#0F002C"/>
<path d="M59.1927 69.0896C59.1646 69.0806 36.7467 61.1672 11.3159 61.1659C7.73014 61.1659 4.08419 61.3222 0.431811 61.6824C0.169096 61.7093 -0.0244123 61.9438 0.00249991 62.2065C0.0281306 62.4705 0.262647 62.6627 0.526643 62.6371C4.14313 62.2808 7.75834 62.1245 11.3159 62.1245C23.9326 62.1245 35.8304 64.0916 44.5692 66.0614C48.9379 67.0456 52.5185 68.0298 55.0034 68.7667C56.2465 69.1358 57.2153 69.4433 57.8728 69.6573C58.5315 69.8726 58.8724 69.9931 58.8736 69.9931C59.1235 70.0815 59.3978 69.9508 59.4849 69.7009C59.5733 69.451 59.4426 69.1768 59.1927 69.0896Z" fill="white"/>
<path d="M51.136 72.577C51.1309 72.577 49.5213 72.5258 46.7813 72.5258C37.8196 72.527 16.8011 73.0653 0.34878 77.7314C0.093755 77.8044 -0.0536159 78.0697 0.01815 78.3247C0.0911975 78.5785 0.355193 78.7271 0.610218 78.6541C16.8844 74.0328 37.8644 73.4831 46.7813 73.4844C48.1449 73.4844 49.2265 73.4972 49.9672 73.51C50.708 73.5228 51.104 73.5356 51.1052 73.5356C51.3692 73.5433 51.5909 73.3357 51.5999 73.0704C51.6076 72.8064 51.4 72.5847 51.136 72.577Z" fill="white"/>
<path d="M110.125 69.9931C110.127 69.9931 110.469 69.8726 111.126 69.6573C115.729 68.1541 135.602 62.1232 157.683 62.1245C161.241 62.1245 164.856 62.2808 168.472 62.6371C168.736 62.6627 168.971 62.4705 168.998 62.2065C169.023 61.9438 168.83 61.7093 168.567 61.6824C164.915 61.3222 161.269 61.1659 157.683 61.1659C132.252 61.1672 109.834 69.0806 109.806 69.0896C109.556 69.1768 109.426 69.451 109.514 69.7009C109.602 69.9508 109.875 70.0815 110.125 69.9931Z" fill="white"/>
<path d="M117.894 73.5356C117.895 73.5356 118.291 73.5228 119.032 73.51C119.773 73.4972 120.854 73.4844 122.218 73.4844C131.135 73.4831 152.115 74.0328 168.389 78.6541C168.644 78.7271 168.909 78.5785 168.981 78.3247C169.054 78.0697 168.905 77.8044 168.65 77.7314C152.198 73.0653 131.179 72.527 122.218 72.5258C119.479 72.5258 117.868 72.577 117.864 72.577C117.599 72.5847 117.391 72.8064 117.399 73.0704C117.408 73.3357 117.63 73.5433 117.894 73.5356Z" fill="white"/>
</svg>
