<svg width="46" height="46" viewBox="0 0 24 24" fill="none" xmlns="http://www.w3.org/2000/svg">
<g opacity="0.3">
<path d="M5.8591 8.94407C6.39408 8.30829 7.6427 8.39953 8.65565 9.15851C9.66394 9.91226 10.0587 11.0357 9.52834 11.6767C9.00321 12.313 7.74939 12.2264 6.73125 11.4721C5.71776 10.7229 5.33339 9.59026 5.8591 8.94407ZM9.57852 5.62753C10.2857 5.17437 11.3619 5.69015 12.0008 6.77324C12.6288 7.87546 12.577 9.12633 11.8796 9.58004C11.1771 10.0384 10.1061 9.51797 9.47754 8.4256C8.83914 7.33266 8.89103 6.08178 9.57852 5.62753ZM5.20979 13.8186C5.5755 13.0349 6.79467 12.7789 7.93499 13.2095C9.06325 13.6789 9.69797 14.663 9.33743 15.4421C8.97692 16.2211 7.76761 16.4777 6.62841 16.0274C5.48921 15.5772 4.86023 14.5785 5.20979 13.8186ZM14.5733 5.46924C15.3682 5.20869 16.2885 5.94753 16.6058 7.13069C16.9231 8.31382 16.5302 9.48593 15.7151 9.7552C14.8999 10.0245 13.9947 9.28153 13.6572 8.10709C13.3595 6.92506 13.753 5.74313 14.5733 5.46924ZM18.705 11.8516C19.1618 12.322 19.2696 13.197 19.0032 13.7988C18.4524 15.0556 16.561 15.1547 15.5258 16.0777C14.4906 17.0008 14.1984 18.9142 12.8701 19.2676C12.1226 19.4766 11.1606 19.1204 10.7273 18.4983C10.1298 17.6397 10.6899 16.3932 10.7356 15.3345C10.8151 13.947 10.1061 12.1047 11.1517 11.1723C12.1921 10.2446 13.9542 11.1106 15.329 11.2387C16.4723 11.3585 17.9124 11.0361 18.705 11.8516Z" fill="#F68087" fill-opacity="0.4"/>
</g>
</svg>
